<svg id="experiment" width="160" height="160" version="1.1" xmlns="http://www.w3.org/2000/svg"><desc>Created with Snap</desc><defs></defs><path d="M124.837,115.088c0-0.459-0.009-0.914-0.022-1.369c-0.003-0.098-0.006-0.195-0.01-0.293 c-0.017-0.452-0.038-0.904-0.067-1.354c-0.003-0.035-0.006-0.069-0.008-0.104c-0.031-0.444-0.068-0.887-0.112-1.328 c-0.005-0.051-0.009-0.102-0.015-0.152c-0.048-0.477-0.104-0.95-0.167-1.421c-0.001-0.01-0.002-0.02-0.004-0.029 c-2.341-17.411-14.642-31.658-30.972-36.8c-0.04-0.013-0.081-0.025-0.121-0.038c-0.446-0.139-0.896-0.273-1.349-0.398 c-0.017-0.004-0.033-0.009-0.051-0.014c-0.243-0.067-0.486-0.133-0.73-0.196V5.614h2.803c1.547,0,2.803-1.257,2.803-2.807 C96.814,1.256,95.559,0,94.012,0H65.988c-1.548,0-2.802,1.256-2.802,2.807c0,1.55,1.254,2.807,2.802,2.807h2.802v65.977 c-0.248,0.064-0.495,0.131-0.741,0.199c-0.012,0.003-0.023,0.006-0.035,0.01c-0.457,0.126-0.909,0.261-1.36,0.401 c-0.036,0.011-0.071,0.022-0.107,0.034c-16.791,5.283-29.323,20.192-31.152,38.27c-0.003,0.034-0.007,0.069-0.01,0.104 c-0.046,0.463-0.085,0.929-0.117,1.396c-0.001,0.019-0.003,0.036-0.004,0.054c-0.031,0.46-0.053,0.922-0.07,1.385 c-0.003,0.085-0.005,0.17-0.008,0.255c-0.014,0.462-0.024,0.924-0.024,1.39c0,6.544,1.399,12.761,3.911,18.369 c6.266,13.984,19.465,24.177,35.216,26.182C76.159,159.877,78.065,160,80,160c1.935,0,3.84-0.123,5.711-0.361 C107.777,156.829,124.837,137.954,124.837,115.088z M48.3,146.841l0.001-0.002l0.001,0.002h0c0.088,0.088,0.173,0.178,0.262,0.266 L48.3,146.841z M80,157.193c-23.178,0-42.035-18.889-42.035-42.105c0-8.174,2.344-15.902,6.465-22.456h71.141 c4.121,6.554,6.465,14.282,6.465,22.456C122.035,138.305,103.178,157.193,80,157.193z" fill="#ffffff" style=""></path><path d="M115.57,92.632H44.43c-4.121,6.554-6.465,14.282-6.465,22.456c0,23.217,18.856,42.105,42.035,42.105 s42.036-18.889,42.036-42.105C122.035,106.914,119.691,99.186,115.57,92.632z" fill="#6ebec4" style=""></path><circle cx="70" cy="70" r="10" fill="#ffffff" mask="url('#Sjsbdw8on12')" style=""></circle><circle cx="85" cy="70" r="8" fill="#ffffff" mask="url('#Sjsbdw8on14')" style=""></circle><circle cx="85" cy="70" r="7" fill="#ffffff" mask="url('#Sjsbdw8on16')" style=""></circle></svg>