<?xml version="1.0" standalone="no"?>
<!DOCTYPE svg PUBLIC "-//W3C//DTD SVG 20010904//EN"
 "http://www.w3.org/TR/2001/REC-SVG-20010904/DTD/svg10.dtd">
<svg version="1.0" xmlns="http://www.w3.org/2000/svg"
 width="453.000000pt" height="453.000000pt" viewBox="0 0 453.000000 453.000000"
 preserveAspectRatio="xMidYMid meet">
<metadata>
Created by potrace 1.11, written by Peter Selinger 2001-2013
</metadata>
<g transform="translate(0.000000,453.000000) scale(0.100000,-0.100000)"
fill="#000000" stroke="none">
<path d="M1814 3222 c-10 -2 -46 -13 -79 -24 -33 -11 -67 -22 -75 -23 -8 -2
-15 -4 -15 -5 0 -1 -7 -3 -15 -5 -17 -3 -146 -43 -170 -52 -8 -3 -24 -8 -34
-10 -11 -2 -25 -8 -31 -13 -7 -5 -14 -8 -17 -5 -6 6 -40 -32 -148 -165 -46
-58 -87 -107 -90 -110 -3 -3 -21 -25 -40 -50 -19 -25 -37 -47 -40 -50 -20 -19
-110 -133 -110 -141 0 -5 5 -9 11 -9 5 0 8 -4 5 -9 -4 -5 -3 -11 1 -13 5 -1
71 -79 148 -172 77 -93 157 -187 177 -208 20 -22 37 -42 36 -44 0 -3 20 -29
45 -57 25 -29 56 -66 68 -82 13 -17 36 -42 51 -57 15 -16 26 -28 23 -28 -6 0
33 -45 84 -99 19 -20 34 -38 34 -41 -1 -3 19 -27 42 -55 24 -27 60 -70 80 -95
21 -25 41 -46 46 -48 5 -2 9 -10 9 -17 0 -7 3 -15 8 -17 6 -3 78 -85 164 -189
20 -24 44 -54 55 -66 10 -11 32 -38 50 -60 17 -21 43 -51 57 -68 15 -16 41
-49 59 -72 37 -48 55 -59 63 -38 4 8 21 32 39 53 19 20 52 60 75 87 23 28 60
72 83 98 23 27 47 59 54 70 7 12 13 18 13 12 0 -5 5 -2 11 7 5 10 9 19 7 20
-1 2 14 19 34 38 19 19 47 53 62 74 14 21 26 36 26 31 0 -4 17 15 38 42 21 26
38 50 38 53 0 3 17 21 37 41 20 20 37 41 37 48 0 7 5 9 10 6 6 -3 10 -1 10 5
0 6 6 17 13 24 69 72 267 315 267 329 0 6 3 8 6 4 3 -3 41 38 84 91 43 53 90
110 104 125 14 15 26 30 26 33 0 2 8 12 18 22 9 10 26 30 37 43 59 71 121 145
126 149 3 3 11 15 18 28 10 18 9 23 -4 28 -8 3 -13 9 -10 14 2 4 -6 16 -18 26
-12 11 -35 37 -52 58 -16 21 -45 53 -63 72 -18 19 -29 34 -25 34 4 0 -11 17
-33 37 -21 20 -32 33 -24 29 8 -5 0 5 -17 22 -18 16 -33 33 -33 38 0 5 -11 20
-25 34 -47 48 -93 100 -89 100 2 0 -4 9 -14 20 -14 17 -98 51 -137 56 -5 0
-23 6 -39 13 -16 6 -38 13 -50 16 -11 2 -22 4 -23 6 -2 1 -7 3 -13 4 -5 1 -12
4 -15 5 -3 1 -8 3 -12 4 -5 1 -39 13 -78 25 -69 23 -79 24 -501 25 -237 0
-439 0 -450 -2z"/>
</g>
</svg>
